<svg xmlns="http://www.w3.org/2000/svg" viewBox="0 0 820 700" width="820" height="700">
<defs><radialGradient id="b" cx="50%" cy="50%" r="70%"><stop offset="0" stop-color="#e3f6fc"/><stop offset="1" stop-color="#ecf9fd"/></radialGradient>
<linearGradient id="ring" x1="0.1" y1="0" x2="0.9" y2="1"><stop offset="0" stop-color="#1b6be8"/><stop offset="1" stop-color="#0a45c6"/></linearGradient>
<linearGradient id="sp" x1="0" y1="0" x2="0" y2="1"><stop offset="0" stop-color="#2587f0"/><stop offset="1" stop-color="#1366e0"/></linearGradient>
<radialGradient id="hub" cx="50%" cy="40%" r="65%"><stop offset="0" stop-color="#ffdb4d"/><stop offset="1" stop-color="#f5a800"/></radialGradient>
<clipPath id="inner"><circle cx="398" cy="308" r="192"/></clipPath></defs>
<rect x="50" y="40" width="755" height="560" rx="250" fill="url(#b)"/>
<circle cx="398" cy="308" r="272" fill="url(#ring)"/>
<circle cx="398" cy="308" r="188" fill="#e6f6fd"/>
<g clip-path="url(#inner)">
<path d="M170 262 Q 260 246 338 238 L 338 394 L 170 346 Z" fill="url(#sp)"/>
<path d="M626 262 Q 536 246 458 238 L 458 394 L 626 346 Z" fill="url(#sp)"/>
<path d="M346 386 L 450 386 L 476 540 L 320 540 Z" fill="url(#sp)"/>
</g>
<circle cx="398" cy="312" r="114" fill="#0f55d6"/>
<circle cx="398" cy="314" r="68" fill="url(#hub)"/>
</svg>
